<svg xmlns="http://www.w3.org/2000/svg" width="370" height="83" viewBox="0 0 370 83" fill="none"><path d="M60.7401 52.4032C65.186 44.0762 68.4381 35.7101 66.8838 26.2438C66.4397 23.5373 65.9722 20.8285 65.3493 18.1594C64.789 15.7581 64.4993 13.4302 66.8357 11.8713C69.0421 10.3989 71.2792 11.2077 73.4321 12.2884C82.3699 16.7753 85.4184 27.4188 80.0741 36.1398C75.5225 43.5671 68.7755 48.6045 60.7401 52.4032Z" fill="white"></path><path fill-rule="evenodd" clip-rule="evenodd" d="M26.1618 13.8856C38.6231 14.1313 49.1385 18.5117 57.8768 30.0712C57.5946 20.9832 53.1684 10.727 48.0345 5.38072C41.2735 -1.65993 30.6121 -1.8052 23.6377 5.02807C22.0608 6.57305 20.7911 8.33729 21.2935 10.6038C21.8369 13.0571 24.01 13.8431 26.1618 13.8856ZM37.2196 22.9084C24.2404 27.5049 16.6552 36.8678 11.8984 49.0348C11.023 51.2732 9.3543 53.2038 6.72688 53.0558C3.85522 52.8939 2.45005 50.5388 1.42767 48.1748C-2.15471 39.8923 1.17766 30.4432 9.48472 25.9471C18.1204 21.2731 27.4186 21.0179 37.2196 22.9084ZM26.8782 35.229C25.5821 50.8533 31.8796 61.3681 41.9919 70.1244C44.2741 72.1005 46.0926 74.6901 44.8006 77.9542C43.3581 81.5991 39.9289 82.5284 36.5128 82.8332C28.533 83.5459 20.9912 78.1375 18.7435 70.3603C16.0738 61.1227 19.4187 44.8536 26.8782 35.229Z" fill="white"></path><path fill-rule="evenodd" clip-rule="evenodd" d="M98.2224 26.9412V55.8724H110.912C117.301 55.8724 120.517 53.0124 120.517 47.2925C120.517 43.645 118.491 41.4482 114.393 40.7436C118.226 39.3343 120.121 36.9718 120.121 33.6559C120.121 29.1794 117.213 26.9412 111.353 26.9412H98.2224ZM116.155 47.5826C116.155 51.0643 114.349 52.8466 110.648 52.8466H102.188V29.9669H111C114.261 29.9669 115.891 31.3347 115.891 34.0289C115.891 37.2619 112.939 39.2514 107.079 39.9975V42.443H108.797C113.688 42.443 116.155 44.1424 116.155 47.5826ZM145.284 43.6049C145.284 37.5948 142.111 34.6105 135.679 34.6105C128.717 34.6105 125.28 38.0922 125.28 45.0141C125.28 52.2677 129.157 55.8737 136.912 55.8737C139.776 55.8737 142.2 55.5836 144.182 55.0447V52.019C142.2 52.5578 139.908 52.8479 137.353 52.8479C131.933 52.8479 129.246 50.6512 129.246 46.3405H145.108C145.24 45.3457 145.284 44.4338 145.284 43.6049ZM141.495 43.1904H129.246C129.51 39.46 131.669 37.6362 135.679 37.6362C139.468 37.6362 141.407 39.46 141.495 43.1904ZM150.619 55.8737V34.6105H153.306L154.011 37.3461C156.346 35.5224 158.858 34.6105 161.634 34.6105C167.274 34.6105 170.094 37.2632 170.094 42.5272V55.8737H166.128V42.4857C166.128 39.3356 164.454 37.7191 161.105 37.7191C158.814 37.7191 156.655 38.631 154.628 40.4133V55.8737H150.619ZM206.409 29.9669V26.9412H186.273V55.8724H190.239V42.7331H205.616V39.6659H190.239V29.9669H206.409ZM209.53 49.4491C209.53 45.097 212.571 42.9002 218.695 42.9002C220.634 42.9002 222.617 43.066 224.599 43.3147V41.3252C224.599 38.8797 222.573 37.6777 218.475 37.6777C216.184 37.6777 213.804 38.0093 211.337 38.6725V35.6467C213.804 34.9421 216.184 34.6105 218.475 34.6105C225.216 34.6105 228.565 36.8073 228.565 41.2008V55.8737H226.318L224.952 53.7598C222.705 55.1691 220.237 55.8737 217.594 55.8737C212.218 55.8737 209.53 53.7184 209.53 49.4491ZM218.695 45.9674C215.214 45.9674 213.496 47.0866 213.496 49.4077C213.496 51.6874 214.862 52.8479 217.594 52.8479C220.325 52.8479 222.661 52.1433 224.599 50.7755V46.3819C222.617 46.0918 220.634 45.9674 218.695 45.9674ZM237.471 31.1698H234.959V50.1533C234.959 53.9666 236.854 55.8733 240.643 55.8733H244.433V52.8475H241.701C239.85 52.8475 238.969 51.8527 238.969 49.8632V37.6773H244.433V34.61H238.308L237.471 31.1698ZM249.529 31.1698H252.04L252.878 34.61H259.002V37.6773H253.539V49.8632C253.539 51.8527 254.42 52.8475 256.27 52.8475H259.002V55.8733H255.213C251.424 55.8733 249.529 53.9666 249.529 50.1533V31.1698ZM273.673 52.8479C269.135 52.8479 266.888 50.2781 266.888 45.1799C266.888 40.1646 269.135 37.6777 273.673 37.6777C278.211 37.6777 280.459 40.1646 280.459 45.1799C280.459 50.2781 278.211 52.8479 273.673 52.8479ZM273.673 34.6105C266.491 34.6105 262.922 38.1751 262.922 45.2628C262.922 52.3091 266.535 55.8737 273.673 55.8737C280.855 55.8737 284.424 52.3091 284.424 45.2628C284.424 38.1751 280.855 34.6105 273.673 34.6105Z" fill="white"></path><path fill-rule="evenodd" clip-rule="evenodd" d="M98.2224 65.4075V78.9087H100.013V66.8388H103.695C105.366 66.8388 106.202 67.5932 106.202 69.1019C106.202 70.8621 104.769 71.9453 101.924 72.3515L102.302 73.8216C106.182 73.2413 108.112 71.6552 108.112 69.0246C108.112 66.6067 106.699 65.4075 103.854 65.4075H98.2224ZM118.93 73.1816C118.93 70.3769 117.497 68.9842 114.592 68.9842C111.448 68.9842 109.896 70.609 109.896 73.8393C109.896 77.2242 111.647 78.9071 115.149 78.9071C116.443 78.9071 117.537 78.7717 118.433 78.5202V77.1082C117.537 77.3596 116.502 77.495 115.348 77.495C112.901 77.495 111.687 76.4699 111.687 74.4582H118.85C118.91 73.994 118.93 73.5685 118.93 73.1816ZM117.219 72.9882H111.687C111.806 71.2473 112.781 70.3963 114.592 70.3963C116.303 70.3963 117.179 71.2473 117.219 72.9882ZM121.479 78.9071V68.9842H122.693L123.012 70.2609C123.907 69.4098 124.981 68.9842 126.255 68.9842V70.4349C125.021 70.4349 124.046 70.8605 123.29 71.6922V78.9071H121.479ZM128.011 76.9148V78.4428C129.225 78.7523 130.419 78.9071 131.652 78.9071C134.478 78.9071 135.891 77.9593 135.891 76.083C135.891 74.1294 134.717 73.1429 132.389 73.1429H130.936C129.862 73.1429 129.324 72.698 129.324 71.8276C129.324 70.8798 130.18 70.4156 131.871 70.4156C133.085 70.4156 134.299 70.5897 135.493 70.9765V69.4678C134.299 69.139 133.085 68.9842 131.871 68.9842C129.046 68.9842 127.633 69.932 127.633 71.8276C127.633 73.7812 128.727 74.7484 130.936 74.7484H132.389C133.523 74.7484 134.1 75.1932 134.1 76.083C134.1 77.0115 133.284 77.495 131.652 77.495C130.419 77.495 129.225 77.3016 128.011 76.9148ZM139.65 73.9166C139.65 76.2958 140.664 77.495 142.714 77.495C144.764 77.495 145.778 76.2958 145.778 73.9166C145.778 71.5762 144.764 70.4156 142.714 70.4156C140.664 70.4156 139.65 71.5762 139.65 73.9166ZM137.859 73.9553C137.859 70.6477 139.471 68.9842 142.714 68.9842C145.958 68.9842 147.569 70.6477 147.569 73.9553C147.569 77.2436 145.958 78.9071 142.714 78.9071C139.49 78.9071 137.859 77.2436 137.859 73.9553ZM150.076 68.9842V78.9071H151.886V71.6922C152.802 70.8605 153.777 70.4349 154.811 70.4349C156.324 70.4349 157.08 71.1893 157.08 72.6594V78.9071H158.871V72.6787C158.871 70.2222 157.597 68.9842 155.05 68.9842C153.797 68.9842 152.662 69.4098 151.608 70.2609L151.289 68.9842H150.076ZM161.387 75.9089C161.387 73.8779 162.76 72.8528 165.526 72.8528C166.402 72.8528 167.297 72.9301 168.193 73.0462V72.1178C168.193 70.9765 167.277 70.4156 165.427 70.4156C164.392 70.4156 163.318 70.5703 162.203 70.8798V69.4678C163.318 69.139 164.392 68.9842 165.427 68.9842C168.471 68.9842 169.984 70.0094 169.984 72.0597V78.9071H168.969L168.352 77.9206C167.337 78.5782 166.223 78.9071 165.029 78.9071C162.601 78.9071 161.387 77.9012 161.387 75.9089ZM165.526 74.2841C163.954 74.2841 163.178 74.8064 163.178 75.8896C163.178 76.9534 163.795 77.495 165.029 77.495C166.263 77.495 167.317 77.1662 168.193 76.5279V74.4776C167.297 74.3422 166.402 74.2841 165.526 74.2841ZM173.061 65.4075H174.852V78.9087H173.061V65.4075ZM180.01 68.9859V78.9087H178.219V68.9859H180.01ZM180.01 65.4075V67.0516H178.219V65.4075H180.01ZM190.902 68.9842H182.943V70.4156H188.913L182.744 77.5917V78.9071H190.704V77.5917H184.814L190.902 70.4156V68.9842ZM192.879 75.9089C192.879 73.8779 194.252 72.8528 197.018 72.8528C197.894 72.8528 198.789 72.9301 199.685 73.0462V72.1178C199.685 70.9765 198.769 70.4156 196.919 70.4156C195.884 70.4156 194.81 70.5703 193.695 70.8798V69.4678C194.81 69.139 195.884 68.9842 196.919 68.9842C199.963 68.9842 201.476 70.0094 201.476 72.0597V78.9071H200.461L199.844 77.9206C198.829 78.5782 197.715 78.9071 196.521 78.9071C194.093 78.9071 192.879 77.9012 192.879 75.9089ZM197.018 74.2841C195.446 74.2841 194.67 74.8064 194.67 75.8896C194.67 76.9534 195.287 77.495 196.521 77.495C197.755 77.495 198.809 77.1662 199.685 76.5279V74.4776C198.789 74.3422 197.894 74.2841 197.018 74.2841ZM204.463 68.9842V78.9071H206.273V71.6922C207.189 70.8605 208.164 70.4349 209.199 70.4349C210.711 70.4349 211.467 71.1893 211.467 72.6594V78.9071H213.258V72.6787C213.258 70.2222 211.984 68.9842 209.437 68.9842C208.184 68.9842 207.049 69.4098 205.995 70.2609L205.676 68.9842H204.463ZM223.097 71.0169C222.381 70.6687 221.545 70.4946 220.61 70.4946C218.56 70.4946 217.546 71.5585 217.546 73.6862C217.546 76.2007 218.56 77.458 220.61 77.458C221.545 77.458 222.381 77.3226 223.097 77.0905V71.0169ZM224.908 78.3091C223.674 78.7153 222.142 78.9087 220.331 78.9087C217.287 78.9087 215.775 77.1872 215.775 73.7442C215.775 70.572 217.386 68.9859 220.61 68.9859C221.485 68.9859 222.321 69.1406 223.097 69.4695V65.4075H224.908V78.3091ZM232.304 77.495C230.254 77.495 229.239 76.2958 229.239 73.9166C229.239 71.5762 230.254 70.4156 232.304 70.4156C234.353 70.4156 235.368 71.5762 235.368 73.9166C235.368 76.2958 234.353 77.495 232.304 77.495ZM232.304 68.9842C229.06 68.9842 227.448 70.6477 227.448 73.9553C227.448 77.2436 229.08 78.9071 232.304 78.9071C235.547 78.9071 237.159 77.2436 237.159 73.9553C237.159 70.6477 235.547 68.9842 232.304 68.9842ZM242.939 78.4428V76.9148C244.153 77.3016 245.347 77.495 246.58 77.495C248.212 77.495 249.028 77.0115 249.028 76.083C249.028 75.1932 248.451 74.7484 247.317 74.7484H245.864C243.655 74.7484 242.561 73.7812 242.561 71.8276C242.561 69.932 243.974 68.9842 246.799 68.9842C248.013 68.9842 249.227 69.139 250.421 69.4678V70.9765C249.227 70.5897 248.013 70.4156 246.799 70.4156C245.108 70.4156 244.252 70.8798 244.252 71.8276C244.252 72.698 244.79 73.1429 245.864 73.1429H247.317C249.645 73.1429 250.819 74.1294 250.819 76.083C250.819 77.9593 249.406 78.9071 246.58 78.9071C245.347 78.9071 244.153 78.7523 242.939 78.4428ZM262.125 78.9071V68.9842H260.334V76.1991C259.399 77.0308 258.424 77.4563 257.389 77.4563C255.877 77.4563 255.14 76.7213 255.14 75.2513V68.9842H253.33V75.2126C253.33 77.6691 254.504 78.9071 256.852 78.9071C258.105 78.9071 259.339 78.4815 260.593 77.6498L260.891 78.9071H262.125ZM264.642 75.9089C264.642 73.8779 266.015 72.8528 268.78 72.8528C269.656 72.8528 270.551 72.9301 271.447 73.0462V72.1178C271.447 70.9765 270.531 70.4156 268.681 70.4156C267.646 70.4156 266.572 70.5703 265.457 70.8798V69.4678C266.572 69.139 267.646 68.9842 268.681 68.9842C271.725 68.9842 273.238 70.0094 273.238 72.0597V78.9071H272.223L271.606 77.9206C270.591 78.5782 269.477 78.9071 268.283 78.9071C265.855 78.9071 264.642 77.9012 264.642 75.9089ZM268.78 74.2841C267.208 74.2841 266.432 74.8064 266.432 75.8896C266.432 76.9534 267.049 77.495 268.283 77.495C269.517 77.495 270.571 77.1662 271.447 76.5279V74.4776C270.551 74.3422 269.656 74.2841 268.78 74.2841ZM276.15 76.9148V78.4428C277.364 78.7523 278.558 78.9071 279.792 78.9071C282.617 78.9071 284.03 77.9593 284.03 76.083C284.03 74.1294 282.856 73.1429 280.528 73.1429H279.075C278.001 73.1429 277.464 72.698 277.464 71.8276C277.464 70.8798 278.319 70.4156 280.011 70.4156C281.225 70.4156 282.438 70.5897 283.632 70.9765V69.4678C282.438 69.139 281.225 68.9842 280.011 68.9842C277.185 68.9842 275.772 69.932 275.772 71.8276C275.772 73.7812 276.867 74.7484 279.075 74.7484H280.528C281.662 74.7484 282.239 75.1932 282.239 76.083C282.239 77.0115 281.424 77.495 279.792 77.495C278.558 77.495 277.364 77.3016 276.15 76.9148ZM290.449 78.4428V76.9148C291.662 77.3016 292.856 77.495 294.09 77.495C295.722 77.495 296.538 77.0115 296.538 76.083C296.538 75.1932 295.961 74.7484 294.826 74.7484H293.374C291.165 74.7484 290.071 73.7812 290.071 71.8276C290.071 69.932 291.483 68.9842 294.309 68.9842C295.523 68.9842 296.737 69.139 297.931 69.4678V70.9765C296.737 70.5897 295.523 70.4156 294.309 70.4156C292.618 70.4156 291.762 70.8798 291.762 71.8276C291.762 72.698 292.299 73.1429 293.374 73.1429H294.826C297.154 73.1429 298.329 74.1294 298.329 76.083C298.329 77.9593 296.916 78.9071 294.09 78.9071C292.856 78.9071 291.662 78.7523 290.449 78.4428ZM305.152 77.495C303.102 77.495 302.087 76.2958 302.087 73.9166C302.087 71.5762 303.102 70.4156 305.152 70.4156C307.201 70.4156 308.216 71.5762 308.216 73.9166C308.216 76.2958 307.201 77.495 305.152 77.495ZM305.152 68.9842C301.908 68.9842 300.296 70.6477 300.296 73.9553C300.296 77.2436 301.928 78.9071 305.152 78.9071C308.395 78.9071 310.007 77.2436 310.007 73.9553C310.007 70.6477 308.395 68.9842 305.152 68.9842ZM314.485 65.4075H312.694V78.9087H314.485V65.4075ZM326.376 78.9071V68.9842H324.585V76.1991C323.65 77.0308 322.675 77.4563 321.64 77.4563C320.128 77.4563 319.392 76.7213 319.392 75.2513V68.9842H317.581V75.2126C317.581 77.6691 318.755 78.9071 321.103 78.9071C322.357 78.9071 323.59 78.4815 324.844 77.6498L325.142 78.9071H326.376ZM333.071 78.8297C330.286 78.4235 328.893 76.7407 328.893 73.7619C328.893 70.5703 330.743 68.9842 334.424 68.9842C335.4 68.9842 336.315 69.0809 337.151 69.2744V70.6864C336.315 70.493 335.459 70.4156 334.623 70.4156C331.997 70.4156 330.684 71.5181 330.684 73.7619C330.684 76.2378 331.997 77.495 334.623 77.495C335.459 77.495 336.315 77.3983 337.151 77.2049V78.6169C336.315 78.8103 335.4 78.9071 334.424 78.9071H334.305L333.907 79.6421C335.3 79.6421 335.996 80.1837 335.996 81.2669C335.996 82.3501 335.22 82.8917 333.648 82.8917C332.952 82.8917 332.256 82.7369 331.559 82.4274V81.4023C332.256 81.7118 332.952 81.8665 333.648 81.8665C334.345 81.8665 334.703 81.6731 334.703 81.2669C334.703 80.8607 334.424 80.6479 333.887 80.6479H332.116L333.071 78.8297ZM343.793 77.4967C341.743 77.4967 340.728 76.2975 340.728 73.9183C340.728 71.5778 341.743 70.4173 343.793 70.4173C345.842 70.4173 346.857 71.5778 346.857 73.9183C346.857 76.2975 345.842 77.4967 343.793 77.4967ZM343.793 68.9859C340.549 68.9859 338.938 70.6494 338.938 73.957C338.938 77.2453 340.569 78.9087 343.793 78.9087C347.036 78.9087 348.648 77.2453 348.648 73.957C348.648 70.6494 347.036 68.9859 343.793 68.9859ZM342.619 65.4075C342.181 65.4075 341.743 65.5429 341.365 65.833V67.245C341.823 66.9549 342.3 66.8195 342.778 66.8195C343.136 66.8195 343.514 66.8969 343.892 67.071C344.27 67.2257 344.629 67.3031 344.967 67.3031C345.405 67.3031 345.842 67.1677 346.22 66.8775V65.4655C345.763 65.7556 345.285 65.891 344.808 65.891C344.449 65.891 344.071 65.8137 343.693 65.6396C343.315 65.4848 342.957 65.4075 342.619 65.4075ZM355.307 68.9842C358.213 68.9842 359.645 70.3769 359.645 73.1816C359.645 73.5685 359.625 73.994 359.566 74.4582H352.402C352.402 76.4699 353.616 77.495 356.064 77.495C357.218 77.495 358.252 77.3596 359.148 77.1082V78.5202C358.252 78.7717 357.158 78.9071 355.865 78.9071C352.362 78.9071 350.611 77.2242 350.611 73.8393C350.611 70.609 352.163 68.9842 355.307 68.9842ZM352.402 72.9882H357.934C357.894 71.2473 357.019 70.3963 355.307 70.3963C353.497 70.3963 352.522 71.2473 352.402 72.9882ZM362.12 76.9148V78.4428C363.334 78.7523 364.528 78.9071 365.762 78.9071C368.587 78.9071 370 77.9593 370 76.083C370 74.1294 368.826 73.1429 366.498 73.1429H365.045C363.971 73.1429 363.433 72.698 363.433 71.8276C363.433 70.8798 364.289 70.4156 365.98 70.4156C367.194 70.4156 368.408 70.5897 369.602 70.9765V69.4678C368.408 69.139 367.194 68.9842 365.98 68.9842C363.155 68.9842 361.742 69.932 361.742 71.8276C361.742 73.7812 362.836 74.7484 365.045 74.7484H366.498C367.632 74.7484 368.209 75.1932 368.209 76.083C368.209 77.0115 367.393 77.495 365.762 77.495C364.528 77.495 363.334 77.3016 362.12 76.9148Z" fill="white"></path></svg>